<?xml version="1.0" standalone="no"?>

<!DOCTYPE svg PUBLIC "-//W3C//DTD SVG 20010904//EN"

 "http://www.w3.org/TR/2001/REC-SVG-20010904/DTD/svg10.dtd">

<svg version="1.0" xmlns="http://www.w3.org/2000/svg"

 width="230.000000pt" height="230.000000pt" viewBox="0 0 230.000000 230.000000"

 preserveAspectRatio="xMidYMid meet">

<path fill="#080808" stroke="none" d="
M126 203

C117 189 108 178 108 178

C107 177 88 177 65 177

C24 177 24 177 22 174

C20 172 20 171 20 106

C20 40 20 40 22 37

C25 35 25 35 45 35

C66 35 66 35 73 47

L79 59

L62 59

L45 59

L45 106

L45 153

L87 153

L129 153

L137 190

C141 210 145 227 145 227

L144 227

L126 203

Z

M155 177

C155 177 154 171 153 165

C152 159 151 153 151 153

L151 153

L168 153

L185 153

L185 106

L185 59

L143 59

C96 58 103 63 83 25

L73 5

L74 5

C75 6 85 12 97 20

C119 34 119 34 162 34

C205 34 205 34 208 36

C210 39 210 39 210 106

C210 172 210 172 208 175

C205 177 205 177 180 177

L155 177

L155 177

Z

M69 117

C67 116 67 113 67 106

C67 93 67 93 80 93

C93 93 93 93 93 106

C93 119 92 119 79 119

C72 119 70 119 69 117

Z

M104 117

C102 116 102 115 102 106

C102 93 102 93 115 93

C128 93 128 93 128 106

C128 119 128 119 115 119

C109 119 106 119 104 117

Z

M139 117

C137 115 137 114 137 106

C137 93 137 93 150 93

C163 93 163 93 163 105

C163 119 163 119 150 119

C142 119 141 119 139 117

Z

"/>

<path fill="#293783" stroke="none" d="
M126 203

C117 189 108 178 108 178

C107 177 88 177 65 177

C24 177 24 177 22 174

C20 172 20 171 20 106

C20 40 20 40 22 37

C25 35 25 35 45 34

C66 34 66 34 72 45

C75 52 78 57 78 58

L78 59

L62 59

L45 59

L45 106

L45 153

L87 153

L129 153

L137 190

C141 210 145 227 145 227

L144 227

L126 203

Z

M155 177

C155 177 154 171 153 165

C152 159 151 153 151 153

L151 153

L168 153

L185 153

L185 106

L185 59

L143 59

C96 58 103 63 83 25

L73 5

L74 5

C75 6 85 12 97 20

C119 34 119 34 162 34

C205 34 205 34 208 36

C210 39 210 39 210 106

C210 172 210 172 208 175

C205 177 205 177 180 177

L155 177

L155 177

Z

M70 118

L69 117

L71 117

L73 117

L73 118

L73 119

L72 119

C71 119 70 119 70 118

Z

M122 118

L122 117

L124 117

L126 117

L126 118

C125 119 124 119 123 119

L122 119

L122 118

Z

M157 118

L157 117

L159 117

L161 117

L161 118

C160 119 159 119 158 119

L157 119

L157 118

Z

M91 116

C91 115 91 114 92 114

L93 113

L93 114

C93 115 93 116 92 117

L91 117

L91 116

Z

M103 116

L102 114

L103 114

L104 114

L104 116

L104 117

L104 117

L103 117

L103 116

Z

M137 98

C137 97 137 96 138 96

L139 95

L139 97

L139 99

L138 99

L137 99

L137 98

Z

M161 95

L160 94

L161 94

C162 94 163 95 163 96

L163 97

L162 97

L161 97

L161 95

Z

"/>

<path fill="#fcd809" stroke="none" d="
M126 203

C117 189 108 178 108 178

C107 177 88 177 65 177

C24 177 24 177 22 174

C20 172 20 171 20 106

C20 40 20 40 22 37

C25 35 25 35 45 34

C66 34 66 34 72 45

C75 52 78 57 78 58

L78 59

L62 59

L45 59

L45 106

L45 153

L87 153

L129 153

L137 190

C141 210 145 227 145 227

L144 227

L126 203

Z

"/>

<path fill="#ffffff" stroke="none" d="
"/>

</svg>

