<?xml version="1.0" encoding="UTF-8" standalone="no"?>
<!DOCTYPE svg PUBLIC "-//W3C//DTD SVG 1.1//EN" "http://www.w3.org/Graphics/SVG/1.1/DTD/svg11.dtd">
<svg xmlns:dc="http://purl.org/dc/elements/1.1/" xmlns:xl="http://www.w3.org/1999/xlink" xmlns="http://www.w3.org/2000/svg" version="1.1" viewBox="0 0 230 230" width="230" height="230">
  <defs/>
  <g id="Canvas_1" stroke-dasharray="none" fill="none" fill-opacity="1" stroke-opacity="1" stroke="none">
    <title>Canvas 1</title>
    <g id="Canvas_1_Layer_1">
      <title>Layer 1</title>
      <g id="Graphic_2">
        <path d="M 126 203 C 117 189 108 178 108 178 C 107 177 88 177 65 177 C 24 177 24 177 22 174 C 20 172 20 171 20 106 C 20 40 20 40 22 37 C 25 35 25 35 45 35 C 66 35 66 35 73 47 L 79 59 L 62 59 L 45 59 L 45 106 L 45 153 L 87 153 L 129 153 L 137 190 C 141 210 145 227 145 227 L 144 227 Z M 155 177 C 155 177 154 171 153 165 C 152 159 151 153 151 153 L 168 153 L 185 153 L 185 106 L 185 59 L 143 59 C 96 58 103 63 83 25 L 73 5 L 74 5 C 75 6 85 12 97 20 C 119 34 119 34 162 34 C 205 34 205 34 208 36 C 210 39 210 39 210 106 C 210 172 210 172 208 175 C 205 177 205 177 180 177 L 155 177 Z M 69 117 C 67 116 67 113 67 106 C 67 93 67 93 80 93 C 93 93 93 93 93 106 C 93 119 92 119 79 119 C 72 119 70 119 69 117 Z M 104 117 C 102 116 102 115 102 106 C 102 93 102 93 115 93 C 128 93 128 93 128 106 C 128 119 128 119 115 119 C 109 119 106 119 104 117 Z M 139 117 C 137 115 137 114 137 106 C 137 93 137 93 150 93 C 163 93 163 93 163 105 C 163 119 163 119 150 119 C 142 119 141 119 139 117 Z" fill="#080808"/>
        <path d="M 126 203 C 117 189 108 178 108 178 C 107 177 88 177 65 177 C 24 177 24 177 22 174 C 20 172 20 171 20 106 C 20 40 20 40 22 37 C 25 35 25 35 45 35 C 66 35 66 35 73 47 L 79 59 L 62 59 L 45 59 L 45 106 L 45 153 L 87 153 L 129 153 L 137 190 C 141 210 145 227 145 227 L 144 227 Z M 155 177 C 155 177 154 171 153 165 C 152 159 151 153 151 153 L 168 153 L 185 153 L 185 106 L 185 59 L 143 59 C 96 58 103 63 83 25 L 73 5 L 74 5 C 75 6 85 12 97 20 C 119 34 119 34 162 34 C 205 34 205 34 208 36 C 210 39 210 39 210 106 C 210 172 210 172 208 175 C 205 177 205 177 180 177 L 155 177 Z M 69 117 C 67 116 67 113 67 106 C 67 93 67 93 80 93 C 93 93 93 93 93 106 C 93 119 92 119 79 119 C 72 119 70 119 69 117 Z M 104 117 C 102 116 102 115 102 106 C 102 93 102 93 115 93 C 128 93 128 93 128 106 C 128 119 128 119 115 119 C 109 119 106 119 104 117 Z M 139 117 C 137 115 137 114 137 106 C 137 93 137 93 150 93 C 163 93 163 93 163 105 C 163 119 163 119 150 119 C 142 119 141 119 139 117 Z" stroke="black" stroke-linecap="butt" stroke-linejoin="round" stroke-width="0"/>
      </g>
    </g>
  </g>
</svg>
